<svg xmlns="http://www.w3.org/2000/svg" viewBox="0 0 211.69 211.69"><defs><style>.cls-1,.cls-2,.cls-3,.cls-5,.cls-7{fill:none;}.cls-1,.cls-2,.cls-3,.cls-7{stroke:#018f96;stroke-miterlimit:10;}.cls-1,.cls-7{stroke-linecap:round;}.cls-1,.cls-3{stroke-width:6px;}.cls-2,.cls-7{stroke-width:3px;}.cls-4{fill:#018f96;}.cls-6{fill:#2915ff;}</style></defs><g id="Layer_2" data-name="Layer 2"><g id="Layer_1-2" data-name="Layer 1"><circle class="cls-1" cx="105.84" cy="105.84" r="102.84"/><rect class="cls-2" x="46.63" y="58.29" width="39.7" height="39.7" rx="10"/><circle class="cls-3" cx="66.48" cy="76.14" r="5.28"/><polygon class="cls-4" points="66.6 89.88 72.84 81.42 60.12 81.42 66.6 89.88"/><line class="cls-2" x1="73.24" y1="112.61" x2="63.72" y2="97.99"/><rect class="cls-2" x="76.47" y="98.64" width="35.69" height="7.32" rx="2.82"/><path class="cls-2" d="M98.64,108.72H82.45s-16.18.78-17,17.52v6.43s-.22,4,4.88,4.1,11.2,0,11.2,0l25.82,0"/><path class="cls-2" d="M80.25,108.72H96.43s16.19.78,17,17.52v6.43s.23,4-4.87,4.1-11.2,0-11.2,0l-25.83,0"/><path class="cls-2" d="M109.34,106l12,21.41s5.65,8.63,15.52-3.12c0,0,2-1.1,2.44-14.41l-.67-35.58"/><line class="cls-2" x1="124.33" y1="73.81" x2="145.75" y2="73.81"/><path class="cls-2" d="M154.28,67.49s6.1-.89,6.1,5.32-6.1,6.21-6.1,6.21V67.49s-.88-5-8.09-5a7.11,7.11,0,0,0-7.54,6.65v5.1"/><path class="cls-2" d="M154.91,113.23c-2.33-10-10.33-19-8.33-30,0-3,5-3,7.7-4.23"/><path class="cls-4" d="M167,116.54v3.16a17.69,17.69,0,0,1,11.47,16.69c0,9.77-7.68,17.71-17.13,17.71a17.36,17.36,0,0,1-17-15.8h-3a20.37,20.37,0,0,0,20,18.8c11.1,0,20.13-9.29,20.13-20.71A20.65,20.65,0,0,0,167,116.54Z"/><path class="cls-5" d="M76,137.89a17.92,17.92,0,0,0,17.85,15.47,18.17,18.17,0,0,0,17.69-14.52l-2.81-.21h0a5,5,0,0,1-2.64-.94H77.63a5.77,5.77,0,0,1-.6.1C76.7,137.84,76.37,137.87,76,137.89Z"/><line class="cls-6" x1="71.81" y1="133.59" x2="71.81" y2="133.69"/><path class="cls-4" d="M108.76,138.63h0l2.81.21a18.17,18.17,0,0,1-17.69,14.52A17.92,17.92,0,0,1,76,137.89c.33,0,.66,0,1-.1a5.77,5.77,0,0,0,.6-.1H72a21.89,21.89,0,0,0,21.89,19.67,22.16,22.16,0,0,0,21.89-19.67h-9.66A5,5,0,0,0,108.76,138.63Z"/><path class="cls-4" d="M93.89,148.65a11.33,11.33,0,0,0,11.28-10.33H82.61A11.33,11.33,0,0,0,93.89,148.65Z"/><line class="cls-7" x1="20.77" y1="118.38" x2="51.86" y2="118.38"/><line class="cls-7" x1="34.4" y1="136.66" x2="56.52" y2="136.66"/><line class="cls-7" x1="27.58" y1="127.08" x2="38.56" y2="127.08"/><line class="cls-7" x1="42.88" y1="127.08" x2="57.29" y2="127.08"/><line class="cls-7" x1="56.52" y1="118.38" x2="61.2" y2="118.38"/><path class="cls-2" d="M99.63,136.8c18.06.43,36.12.45,54.17.45,0,0,20.27-24,8.61-24-24.46.18-22.43,24-22.43,24"/><path class="cls-4" d="M161.17,128.59h.18c3.14,0,4.39,1.54,4.87,3.08h5c-.49-2.89-2.79-5.62-7.37-6.31A23.82,23.82,0,0,1,161.17,128.59Z"/><path class="cls-4" d="M166.21,139.35c-.43,1.17-1.46,3.06-4.73,3.06-4.07,0-5.57-3-5.81-6a8.56,8.56,0,0,1-5.1.82c.59,4.93,4.05,8.63,10.7,8.63,5.79,0,9-2.72,10-6.46Z"/></g></g></svg>