<svg id="Layer_1" data-name="Layer 1" xmlns="http://www.w3.org/2000/svg" viewBox="0 0 171 242"><defs><style>.cls-1{fill:#d8d8d8;fill-opacity:0.5;}.cls-2{isolation:isolate;}.cls-3{fill:#454f5b;}.cls-4,.cls-5{fill:none;}.cls-5{stroke:#454f5b;stroke-linecap:round;stroke-linejoin:round;stroke-width:3px;}</style></defs><path class="cls-1" d="M20,.35H151a20.06,20.06,0,0,1,20,20v131a20.06,20.06,0,0,1-20,20H20a20.06,20.06,0,0,1-20-20v-131A20.06,20.06,0,0,1,20,.35Z"/><g class="cls-2"><path class="cls-3" d="M74,201.2c0,2.18-1.73,3.44-5,3.44H62.47V192h6.16c3.15,0,4.77,1.31,4.77,3.27a3,3,0,0,1-1.67,2.78A3.11,3.11,0,0,1,74,201.2Zm-8.66-7v3h2.9c1.42,0,2.2-.5,2.2-1.49s-.78-1.48-2.2-1.48Zm5.73,6.67c0-1.07-.81-1.57-2.32-1.57H65.37v3.11h3.41C70.29,202.44,71.1,202,71.1,200.9Z"/></g><g class="cls-2"><path class="cls-3" d="M82.06,194.81v2.59c-.23,0-.41,0-.63,0a2.37,2.37,0,0,0-2.57,2.7v4.57H76.05V195h2.68v1.28A3.92,3.92,0,0,1,82.06,194.81Z"/></g><g class="cls-2"><path class="cls-3" d="M92.25,199.11v5.53H89.62v-1.21a3.16,3.16,0,0,1-3,1.36c-2.27,0-3.62-1.27-3.62-2.94s1.2-2.9,4.16-2.9h2.23c0-1.21-.72-1.91-2.23-1.91a4.68,4.68,0,0,0-2.8.9l-1-2a7.41,7.41,0,0,1,4.17-1.17C90.54,194.81,92.25,196.18,92.25,199.11Zm-2.81,2.47v-1H87.51c-1.31,0-1.73.49-1.73,1.13s.6,1.17,1.59,1.17A2.08,2.08,0,0,0,89.44,201.58Z"/><path class="cls-3" d="M103.35,199.11v5.53h-2.63v-1.21a3.16,3.16,0,0,1-3,1.36c-2.27,0-3.62-1.27-3.62-2.94s1.21-2.9,4.16-2.9h2.23c0-1.21-.72-1.91-2.23-1.91a4.65,4.65,0,0,0-2.79.9l-1-2a7.42,7.42,0,0,1,4.18-1.17C101.64,194.81,103.35,196.18,103.35,199.11Zm-2.81,2.47v-1H98.62c-1.32,0-1.73.49-1.73,1.13s.59,1.17,1.58,1.17A2.06,2.06,0,0,0,100.54,201.58Z"/><path class="cls-3" d="M105.55,192a1.6,1.6,0,0,1,1.74-1.57A1.58,1.58,0,0,1,109,192a1.75,1.75,0,0,1-3.49.06Zm.34,2.91h2.81v9.69h-2.81Z"/></g><g class="cls-2"><path class="cls-3" d="M50.1,226.44l-1.74-1.8a5.6,5.6,0,0,1-4.22,1.71c-2.46,0-4.23-1.3-4.23-3.21,0-1.49.87-2.59,3.17-3.92-1.22-1.26-1.58-2-1.58-3,0-1.6,1.24-2.68,3.18-2.68s2.94.93,2.94,2.5c0,1.26-.76,2.14-2.81,3.33L48.27,223a8.12,8.12,0,0,0,.84-2.44l1,.33a8.65,8.65,0,0,1-1.12,2.9l1.8,1.85Zm-2.5-2.58L43.8,220c-2,1.15-2.63,1.94-2.63,3.06,0,1.37,1.23,2.27,3,2.27A4.36,4.36,0,0,0,47.6,223.86Zm-4.91-7.65c0,.74.27,1.26,1.42,2.43,1.82-1,2.41-1.67,2.41-2.57s-.67-1.57-1.84-1.57S42.69,215.2,42.69,216.21Z"/><path class="cls-3" d="M56.72,219.94a6.62,6.62,0,1,1,6.63,6.41A6.35,6.35,0,0,1,56.72,219.94Zm11.91,0a5.3,5.3,0,1,0-5.28,5.22A5.11,5.11,0,0,0,68.63,219.94Z"/><path class="cls-3" d="M81.21,216.77v9.47H80v-1.73a3.76,3.76,0,0,1-3.4,1.82c-2.41,0-4-1.35-4-4.07v-5.49h1.28v5.36c0,2,1,3.05,2.85,3.05,2,0,3.22-1.28,3.22-3.44v-5Z"/></g><g class="cls-2"><path class="cls-3" d="M89.77,225.66a3,3,0,0,1-2,.67A2.51,2.51,0,0,1,85,223.58v-5.73H83.31v-1.08H85V214.7h1.28v2.07h2.88v1.08H86.28v5.65a1.51,1.51,0,0,0,1.64,1.73,2.12,2.12,0,0,0,1.4-.48Z"/></g><g class="cls-2"><path class="cls-3" d="M100.39,212.88v13.36H99.17v-1.87a4.09,4.09,0,0,1-3.65,2,4.82,4.82,0,0,1,0-9.63,4.15,4.15,0,0,1,3.6,1.87v-5.69Zm-1.25,8.62a3.53,3.53,0,1,0-3.52,3.7A3.47,3.47,0,0,0,99.14,221.5Z"/><path class="cls-3" d="M103,221.5a4.82,4.82,0,1,1,4.83,4.83A4.66,4.66,0,0,1,103,221.5Zm8.34,0a3.52,3.52,0,1,0-3.51,3.7A3.46,3.46,0,0,0,111.34,221.5Z"/><path class="cls-3" d="M114.29,221.5a4.82,4.82,0,1,1,4.82,4.83A4.65,4.65,0,0,1,114.29,221.5Zm8.34,0a3.53,3.53,0,1,0-3.52,3.7A3.46,3.46,0,0,0,122.63,221.5Z"/><path class="cls-3" d="M131.3,216.7v1.24l-.31,0c-2,0-3.18,1.26-3.18,3.5v4.82h-1.28v-9.47h1.22v1.85A3.57,3.57,0,0,1,131.3,216.7Z"/></g><rect class="cls-4" x="41.71" y="42.27" width="81" height="90"/><path class="cls-5" d="M76.71,38.63s2.15,1,2.15,5.12-4.3,6.08-4.3,10.23,2.15,5.12,2.15,5.12"/><path class="cls-5" d="M86.79,35.89S89,36.89,89,41s-4.31,6.09-4.31,10.27,2.15,5.08,2.15,5.08"/><path class="cls-5" d="M96.94,38.63s2.15,1,2.15,5.12-4.3,6.08-4.3,10.23,2.15,5.12,2.15,5.12"/><path class="cls-5" d="M122.26,74.8H48.71a4.17,4.17,0,0,1,0-8.34h73.54a4.17,4.17,0,0,1,0,8.34h0Z"/><path class="cls-5" d="M121.86,83.35h9.32"/><path class="cls-5" d="M39.82,83.35h9.29"/><path class="cls-5" d="M72.41,110.27,60.48,137.08"/><path class="cls-5" d="M98.59,110.27l11.92,26.81"/><path class="cls-5" d="M122.85,74.8a37.37,37.37,0,1,1-74.73,1.29V74.8Z"/><path class="cls-5" d="M122.85,74.8a37.37,37.37,0,1,1-74.73,1.29V74.8Z"/><path class="cls-5" d="M107.88,93.49A29.15,29.15,0,0,1,85.5,104"/><path class="cls-5" d="M55.19,137.65H66"/><path class="cls-5" d="M105.57,137.65H115.8"/><path class="cls-5" d="M69,119.21h33.18"/></svg>