<svg xmlns="http://www.w3.org/2000/svg" viewBox="0 0 171 242"><defs><style>.cls-1{fill:#d8d8d8;fill-opacity:0.5;}.cls-2{fill:#454f5b;}</style></defs><g id="Layer_22" data-name="Layer 22"><g id="Layer_1-2" data-name="Layer 1-2"><path class="cls-1" d="M20,0H151a20.06,20.06,0,0,1,20,20V151a20.06,20.06,0,0,1-20,20H20A20.06,20.06,0,0,1,0,151V20A20.06,20.06,0,0,1,20,0Z"/><path class="cls-2" d="M142.39,119.54a1.5,1.5,0,0,1-1.49-1.37l-5.78-65.32H89.56L87.49,76.13a1.5,1.5,0,0,1-3-.26L86.7,51.22a1.49,1.49,0,0,1,1.49-1.37h48.3A1.49,1.49,0,0,1,138,51.22l5.9,66.69a1.49,1.49,0,0,1-1.36,1.62Z"/><path class="cls-2" d="M136.61,52.81H88.18a1.5,1.5,0,0,1-1.5-1.5c0-6.47,12.49-12.58,25.71-12.58s25.72,6.11,25.72,12.58A1.5,1.5,0,0,1,136.61,52.81Zm-46.48-3h44.53c-2-3.64-10.93-8.08-22.27-8.08S92.18,46.17,90.13,49.81Z"/><path class="cls-2" d="M86.45,72.81A1.5,1.5,0,0,1,85.14,72L75.2,54.16a2.71,2.71,0,0,1,2-4.35h11a1.52,1.52,0,0,1,1.11.49,1.49,1.49,0,0,1,.38,1.14l-1.73,20a1.49,1.49,0,0,1-1.18,1.34A1.63,1.63,0,0,1,86.45,72.81Zm-8.56-20,7.49,13.48,1.16-13.48Z"/><path class="cls-2" d="M143.78,113.54a1.5,1.5,0,0,1-.66-2.85C152.88,106,158.71,90.34,158.71,78v-.66c0-15.11-10-24.5-26.13-24.5a1.5,1.5,0,0,1,0-3c18,0,29.13,10.54,29.13,27.5V78c0,13.11-6.05,30-17.28,35.42A1.51,1.51,0,0,1,143.78,113.54Z"/><path class="cls-2" d="M141.05,104.49a1.5,1.5,0,0,1-.51-2.91c6.35-2.31,9.77-12.7,9.77-21.31V74.92c0-8.5-3.86-12.52-13.32-13.89a1.49,1.49,0,0,1-1.27-1.69,1.51,1.51,0,0,1,1.69-1.28c11,1.59,15.9,6.79,15.9,16.86v5.35c0,13.64-6.09,22.07-11.75,24.13A1.52,1.52,0,0,1,141.05,104.49Z"/><path class="cls-2" d="M125.3,108h-.63a4,4,0,0,1-4-4V72.17a4,4,0,0,1,4-4h.65a4,4,0,0,1,4,4V104a4,4,0,0,1-4,4Zm0-36.9h-.62a1,1,0,0,0-.71.3,1,1,0,0,0-.29.72V104a1,1,0,0,0,.29.73,1,1,0,0,0,.72.3h.61a1,1,0,0,0,1-1V72.17A1,1,0,0,0,125.29,71.14Z"/><path class="cls-2" d="M93.27,131a1.5,1.5,0,0,1,0-3h41a6.68,6.68,0,0,0,6.61-6.73v-1.8H96.19a1.5,1.5,0,0,1,0-3h46.19a1.5,1.5,0,0,1,1.5,1.5v3.29a9.7,9.7,0,0,1-9.6,9.74Z"/><path class="cls-2" d="M89.2,126.68H23.6a6.51,6.51,0,0,1-6.5-6.5v-6.75a1.5,1.5,0,0,1,3,0v6.75a3.5,3.5,0,0,0,3.5,3.5H89.2a3.5,3.5,0,0,0,3.5-3.5V91.49A14.52,14.52,0,0,0,78.3,76.93H34.41a14.28,14.28,0,0,0-12.36,7.24,1.5,1.5,0,0,1-2.62-1.48,17.32,17.32,0,0,1,15-8.76H78.31A17.54,17.54,0,0,1,95.7,91.5v28.68A6.51,6.51,0,0,1,89.2,126.68Z"/><path class="cls-2" d="M89.13,126.68H23.56a6.51,6.51,0,0,1-6.5-6.5V91.49A17.54,17.54,0,0,1,34.4,73.93H78.31a17.3,17.3,0,0,1,15,8.73,1.5,1.5,0,0,1-2.6,1.48,14.32,14.32,0,0,0-12.39-7.21H34.41A14.52,14.52,0,0,0,20.06,91.48v28.7a3.5,3.5,0,0,0,3.5,3.5H89.13a3.5,3.5,0,0,0,3.5-3.5v-6.75a1.5,1.5,0,0,1,3,0v6.75A6.51,6.51,0,0,1,89.13,126.68Z"/><path class="cls-2" d="M17.44,103.05H13.7a4.44,4.44,0,0,1-.09-8.87h3.83a1.5,1.5,0,0,1,0,3H13.7a1.44,1.44,0,0,0-1.27,1.35,1.42,1.42,0,0,0,.37,1,1.38,1.38,0,0,0,1,.48h3.65a1.5,1.5,0,0,1,0,3Z"/><path class="cls-2" d="M33.54,131H25.63a3.66,3.66,0,0,1,0-7.31h7.91a3.62,3.62,0,0,1,2.57,1.07A3.67,3.67,0,0,1,33.57,131Zm-7.74-3h7.72a.67.67,0,0,0,.64-.66.64.64,0,0,0-.18-.46.63.63,0,0,0-.45-.19H25.8a.67.67,0,0,0-.58.61A.65.65,0,0,0,25.8,128Z"/><path class="cls-2" d="M85.88,131H78a3.66,3.66,0,0,1,0-7.31h8A3.66,3.66,0,0,1,86,131Zm-7.74-3h7.67a.66.66,0,0,0,.58-.61.65.65,0,0,0-.58-.7H78.14a.67.67,0,0,0-.58.61A.65.65,0,0,0,78.14,128Z"/><path class="cls-2" d="M40,119.19h-.07a6.21,6.21,0,0,1-6.18-6.26A6.27,6.27,0,0,1,40,106.69h.08a6.25,6.25,0,0,1-.08,12.5Zm0-9.5a3.24,3.24,0,0,0-3.25,3.21,3.18,3.18,0,0,0,.93,2.33,3.22,3.22,0,0,0,2.27,1H40a3.25,3.25,0,0,0,0-6.5Z"/><path class="cls-2" d="M39.93,114.44a1.5,1.5,0,0,1-1.5-1.5v-4.75a1.5,1.5,0,0,1,3,0v4.75A1.5,1.5,0,0,1,39.93,114.44Z"/><path class="cls-2" d="M70,76.93H43a1.5,1.5,0,0,1-1.5-1.5V70.85a1.5,1.5,0,0,1,3,0v3.08H70a1.5,1.5,0,0,1,0,3Z"/><path class="cls-2" d="M43.27,66.61a1.5,1.5,0,0,1-1.5-1.5v-2a1.5,1.5,0,0,1,3,0v2A1.5,1.5,0,0,1,43.27,66.61Z"/><path class="cls-2" d="M69.86,76.4h0a1.5,1.5,0,0,1-1.49-1.51l.06-11.74a1.5,1.5,0,0,1,1.45-1.49.49.49,0,0,0,.48-.54V61a.58.58,0,0,0-.56-.61H43.18a.59.59,0,0,0-.38.18.58.58,0,0,0-.15.41.69.69,0,0,0,.66.67,1.5,1.5,0,0,1,1.44,1.56,1.48,1.48,0,0,1-1.56,1.44,3.71,3.71,0,0,1-3.54-3.56,3.57,3.57,0,0,1,3.43-3.7H69.85A3.62,3.62,0,0,1,73.35,61a3.49,3.49,0,0,1-1.94,3.33l0,10.62A1.5,1.5,0,0,1,69.86,76.4Z"/><path class="cls-2" d="M29.62,126.69a1.5,1.5,0,0,1-1.5-1.5v-49a1.5,1.5,0,0,1,3,0v49A1.5,1.5,0,0,1,29.62,126.69Z"/><path class="cls-2" d="M56.83,112.87v.23a2.13,2.13,0,0,0,.25,1.11,2.6,2.6,0,0,0,1.5,1.53,2,2,0,0,0,1.1.24,4,4,0,0,0,.76-.11,2.78,2.78,0,0,0,1.25-.73l.44-.58a2.88,2.88,0,0,0,.39-1.46v-.23a3.19,3.19,0,0,0-.83-2,3.08,3.08,0,0,0-2-.84,4.08,4.08,0,0,0-.77.11,2.66,2.66,0,0,0-1.24.73c-.16.2-.31.4-.44.58A3.13,3.13,0,0,0,56.83,112.87Z"/><path class="cls-2" d="M51.26,115.76c3.65,0,3.67-5.77,0-5.77S47.6,115.76,51.26,115.76Z"/><path class="cls-2" d="M70.18,191.69v12.6H67.84v-5.4H61.32v5.4H59v-12.6h2.34v5.2h6.52v-5.2Z"/><path class="cls-2" d="M72.55,199.48a5.12,5.12,0,1,1,5.11,4.94A4.83,4.83,0,0,1,72.55,199.48Zm8,0a2.86,2.86,0,1,0-2.87,3A2.8,2.8,0,0,0,80.53,199.48Z"/><path class="cls-2" d="M101,198.78v5.51H98.78v-5.22c0-1.71-.79-2.54-2.16-2.54s-2.5,1-2.5,2.88v4.88H91.87v-5.22c0-1.71-.8-2.54-2.17-2.54s-2.5,1-2.5,2.88v4.88H85v-9.62h2.14v1.23a4,4,0,0,1,3.16-1.33,3.61,3.61,0,0,1,3.24,1.6,4.48,4.48,0,0,1,3.6-1.6C99.41,194.57,101,195.88,101,198.78Z"/><path class="cls-2" d="M113,200.2h-7.55a2.91,2.91,0,0,0,3.12,2.31,3.41,3.41,0,0,0,2.61-1l1.21,1.39a4.89,4.89,0,0,1-3.88,1.57c-3.22,0-5.31-2.07-5.31-4.94a4.78,4.78,0,0,1,5-4.91,4.69,4.69,0,0,1,4.86,5C113,199.72,113,200,113,200.2Zm-7.56-1.49h5.45a2.61,2.61,0,0,0-2.72-2.34A2.64,2.64,0,0,0,105.44,198.71Z"/><path class="cls-2" d="M38.45,226.09l-1.75-1.8A5.57,5.57,0,0,1,32.49,226c-2.46,0-4.23-1.3-4.23-3.21,0-1.49.86-2.59,3.17-3.92-1.23-1.26-1.59-2-1.59-3,0-1.6,1.25-2.68,3.19-2.68,1.78,0,2.94.93,2.94,2.5,0,1.26-.76,2.14-2.81,3.33l3.46,3.56a8,8,0,0,0,.84-2.43l1,.33a9,9,0,0,1-1.12,2.9l1.8,1.85ZM36,223.51l-3.8-3.9c-2,1.15-2.63,1.94-2.63,3.06,0,1.37,1.23,2.27,3,2.27A4.38,4.38,0,0,0,36,223.51ZM31,215.86c0,.74.27,1.26,1.43,2.43,1.81-1,2.41-1.67,2.41-2.57s-.67-1.57-1.84-1.57S31,214.85,31,215.86Z"/><path class="cls-2" d="M54.09,222.52h-7l-1.51,3.37H44.17l5.76-12.6h1.32L57,225.89h-1.4Zm-.48-1.08-3-6.77-3,6.77Z"/><path class="cls-2" d="M68.42,221.15A4.59,4.59,0,0,1,63.7,226a4.14,4.14,0,0,1-3.6-1.87v5.27H58.82v-13h1.23v1.87a4.12,4.12,0,0,1,3.65-1.94A4.58,4.58,0,0,1,68.42,221.15Zm-1.28,0a3.53,3.53,0,1,0-3.53,3.7A3.49,3.49,0,0,0,67.14,221.15Z"/><path class="cls-2" d="M80.63,221.15A4.59,4.59,0,0,1,75.91,226a4.14,4.14,0,0,1-3.6-1.87v5.27H71v-13h1.22v1.87a4.13,4.13,0,0,1,3.66-1.94A4.58,4.58,0,0,1,80.63,221.15Zm-1.28,0a3.53,3.53,0,1,0-3.53,3.7A3.49,3.49,0,0,0,79.35,221.15Z"/><path class="cls-2" d="M83.23,212.53h1.28v13.36H83.23Z"/><path class="cls-2" d="M87.79,213.43a.94.94,0,0,1,1.87,0,.94.94,0,0,1-1.87,0Zm.28,3h1.28v9.47H88.07Z"/><path class="cls-2" d="M100.06,220v5.87H98.84v-1.48A3.54,3.54,0,0,1,95.58,226c-2.14,0-3.46-1.12-3.46-2.76,0-1.45.94-2.68,3.66-2.68h3V220c0-1.62-.92-2.51-2.69-2.51A4.87,4.87,0,0,0,93,218.58l-.57-1a6,6,0,0,1,3.85-1.27C98.68,216.35,100.06,217.57,100.06,220Zm-1.27,3V221.5h-3c-1.83,0-2.43.72-2.43,1.69s.89,1.78,2.4,1.78A3,3,0,0,0,98.79,223Z"/><path class="cls-2" d="M112.25,220.4v5.49H111v-5.37c0-2-1-3-2.84-3a3.11,3.11,0,0,0-3.32,3.42v5h-1.27v-9.47h1.22v1.75a4,4,0,0,1,3.6-1.82C110.67,216.35,112.25,217.68,112.25,220.4Z"/><path class="cls-2" d="M114.8,221.15a4.66,4.66,0,0,1,4.88-4.8,4.13,4.13,0,0,1,3.71,1.87l-1,.65a3.22,3.22,0,0,0-2.76-1.41,3.7,3.7,0,0,0,0,7.39,3.23,3.23,0,0,0,2.76-1.39l1,.65a4.17,4.17,0,0,1-3.71,1.87A4.68,4.68,0,0,1,114.8,221.15Z"/><path class="cls-2" d="M134,221.55h-7.93a3.52,3.52,0,0,0,3.73,3.3,3.74,3.74,0,0,0,2.9-1.25l.72.83a5,5,0,0,1-8.62-3.28,4.56,4.56,0,0,1,4.62-4.8,4.51,4.51,0,0,1,4.59,4.8C134,221.26,134,221.41,134,221.55Zm-7.93-1h6.72a3.37,3.37,0,0,0-6.72,0Z"/><path class="cls-2" d="M135.29,224.81l.57-1a5.7,5.7,0,0,0,3.37,1.06c1.8,0,2.54-.61,2.54-1.55,0-2.46-6.14-.52-6.14-4.26,0-1.55,1.33-2.7,3.74-2.7a6.4,6.4,0,0,1,3.35.88l-.55,1a4.84,4.84,0,0,0-2.8-.81c-1.71,0-2.46.66-2.46,1.56,0,2.56,6.14.63,6.14,4.27,0,1.64-1.44,2.7-3.91,2.7A6.28,6.28,0,0,1,135.29,224.81Z"/></g></g></svg>