<svg xmlns="http://www.w3.org/2000/svg" viewBox="0 0 171 242"><defs><style>.cls-1{fill:#d8d8d8;fill-opacity:0.5;}.cls-2,.cls-4{fill:#454f5b;}.cls-3{fill:none;stroke:#454f5b;stroke-linecap:round;stroke-linejoin:round;stroke-width:3px;}.cls-4{fill-rule:evenodd;}</style></defs><g id="Layer_2" data-name="Layer 2"><path class="cls-1" d="M20,0H151a20.06,20.06,0,0,1,20,20V151a20.06,20.06,0,0,1-20,20H20A20.06,20.06,0,0,1,0,151V20A20.06,20.06,0,0,1,20,0Z"/><path class="cls-2" d="M33.38,202.9h2.34v10.63h6.59v2H33.38Z"/><path class="cls-2" d="M43.64,203a1.37,1.37,0,0,1,1.44-1.35,1.33,1.33,0,0,1,1.44,1.29,1.39,1.39,0,0,1-1.44,1.41A1.37,1.37,0,0,1,43.64,203Zm.3,2.93h2.25v9.62H43.94Z"/><path class="cls-2" d="M58.54,205.89V219H56.29v-4.66a3.94,3.94,0,0,1-3.08,1.29,4.93,4.93,0,0,1,0-9.85,4,4,0,0,1,3.19,1.37v-1.26Zm-2.21,4.81a2.86,2.86,0,1,0-2.86,3A2.8,2.8,0,0,0,56.33,210.7Z"/><path class="cls-2" d="M70.8,205.89v9.62H68.66v-1.23a3.94,3.94,0,0,1-3.1,1.35c-2.46,0-4.14-1.35-4.14-4.25v-5.49h2.25v5.19c0,1.74.83,2.57,2.25,2.57s2.63-1,2.63-2.9v-4.86Z"/><path class="cls-2" d="M73,210.7a5.12,5.12,0,1,1,5.11,4.93A4.84,4.84,0,0,1,73,210.7Zm8,0a2.85,2.85,0,1,0-2.86,3A2.8,2.8,0,0,0,80.93,210.7Z"/><path class="cls-2" d="M90.92,205.78v2.15a2.52,2.52,0,0,0-.52-.06c-1.71,0-2.79,1-2.79,3v4.67H85.36v-9.62H87.5v1.41A3.79,3.79,0,0,1,90.92,205.78Z"/><path class="cls-2" d="M91.86,214.17l.81-1.82a6.92,6.92,0,0,0,4.16,1.39c2,0,2.79-.7,2.79-1.64,0-2.72-7.49-.93-7.49-5.61,0-2,1.62-3.77,5.08-3.77a8,8,0,0,1,4.19,1.12l-.74,1.82a6.93,6.93,0,0,0-3.47-1c-2,0-2.74.75-2.74,1.71,0,2.68,7.47.93,7.47,5.56,0,2-1.63,3.75-5.09,3.75A8.12,8.12,0,0,1,91.86,214.17Z"/><path class="cls-2" d="M113.5,210v5.51h-2.25v-5.23c0-1.71-.85-2.53-2.29-2.53-1.6,0-2.68,1-2.68,2.89v4.87H104V202.15h2.25V207a4.25,4.25,0,0,1,3.2-1.23C111.79,205.78,113.5,207.1,113.5,210Z"/><path class="cls-2" d="M115.65,210.7a5.13,5.13,0,1,1,5.12,4.93A4.85,4.85,0,0,1,115.65,210.7Zm8,0a2.86,2.86,0,1,0-2.86,3A2.8,2.8,0,0,0,123.63,210.7Z"/><path class="cls-2" d="M138.26,210.7a4.68,4.68,0,0,1-4.87,4.93,3.94,3.94,0,0,1-3.08-1.29V219h-2.25V205.89h2.14v1.26a4,4,0,0,1,3.19-1.37A4.68,4.68,0,0,1,138.26,210.7Zm-2.28,0a2.86,2.86,0,1,0-2.85,3A2.8,2.8,0,0,0,136,210.7Z"/><path class="cls-3" d="M105.54,113.16v23.48"/><path class="cls-3" d="M96.77,136.67h17.54"/><path class="cls-3" d="M93.41,106.92c-2.34-3.11-2.64-6.36-2.08-10.2L95.15,75.8h20.78l3.83,20.92a14.39,14.39,0,0,1-6.5,14.23,14.56,14.56,0,0,1-15.43,0"/><path class="cls-3" d="M91.26,97.23s1.35-2.76,7.14-2.76c4.34,0,7,3.11,10.42,4.66a9.21,9.21,0,0,0,3.86.86c5.79,0,7.14-2.76,7.14-2.76"/><path class="cls-4" d="M76.94,38.1a3.46,3.46,0,0,0-3.4-3.42H63.15a3.44,3.44,0,0,0-3.44,3.42v26a7.38,7.38,0,0,1-.93,3.53,7.17,7.17,0,0,1-2.55,2.61,10.61,10.61,0,0,0-5.14,9.09v53.55a5.16,5.16,0,0,0,5.12,5.22H80.38a5.18,5.18,0,0,0,5.16-5.18V79.34a10.67,10.67,0,0,0-1.37-5.24,10.32,10.32,0,0,0-3.76-3.86,7.18,7.18,0,0,1-3.47-6.14Zm-3.51.39V53.82H63.21V38.51ZM61.78,93.63a1.72,1.72,0,0,1-3.43,0V90.2H54.92v27.44h3.43V100.49a1.72,1.72,0,1,1,3.43-.29v17.44H82.36V90.2H61.78Zm18.87,41.24h-24a1.74,1.74,0,0,1-1.73-1.75h0V120.83h3.43v8.77a1.72,1.72,0,0,0,3.43.29v-9H82.36V133.1a1.75,1.75,0,0,1-1.71,1.77Zm.78-59.08a6.91,6.91,0,0,0-2.51-2.61,10.71,10.71,0,0,1-5.14-9.08v-7H63.54v7a10.66,10.66,0,0,1-1.37,5.23,10.4,10.4,0,0,1-3.76,3.89A7.17,7.17,0,0,0,55,79.36v7h3.4V81.19a1.72,1.72,0,1,1,3.43-.29v5.47H82.36v-7A7.14,7.14,0,0,0,81.43,75.79Z"/><path class="cls-3" d="M105.54,113.16v23.48"/><path class="cls-3" d="M96.77,136.67h17.54"/><path class="cls-3" d="M93.41,106.92c-2.34-3.11-2.64-6.36-2.08-10.2L95.15,75.8h20.78l3.83,20.92a14.39,14.39,0,0,1-6.5,14.23,14.56,14.56,0,0,1-15.43,0"/><path class="cls-3" d="M91.27,97.23s1.34-2.76,7.13-2.76c4.35,0,7,3.11,10.42,4.66a9.21,9.21,0,0,0,3.86.86c5.79,0,7.14-2.76,7.14-2.76"/><path class="cls-4" d="M76.94,38.1a3.46,3.46,0,0,0-3.4-3.42H63.15a3.44,3.44,0,0,0-3.44,3.42v26a7.38,7.38,0,0,1-.93,3.53,7.17,7.17,0,0,1-2.55,2.61,10.61,10.61,0,0,0-5.14,9.09v53.55a5.16,5.16,0,0,0,5.12,5.22H80.38a5.18,5.18,0,0,0,5.16-5.18V79.34a10.67,10.67,0,0,0-1.37-5.24,10.32,10.32,0,0,0-3.76-3.86,7.18,7.18,0,0,1-3.47-6.14Zm-3.51.39V53.82H63.21V38.51ZM61.78,93.63a1.72,1.72,0,0,1-3.43,0V90.2H54.92v27.44h3.43V100.49a1.72,1.72,0,1,1,3.43-.29v17.44H82.36V90.2H61.78Zm18.87,41.24h-24a1.74,1.74,0,0,1-1.73-1.75h0V120.83h3.43v8.77a1.72,1.72,0,0,0,3.43.29v-9H82.36V133.1a1.75,1.75,0,0,1-1.71,1.77Zm.78-59.08a6.91,6.91,0,0,0-2.51-2.61,10.71,10.71,0,0,1-5.14-9.08v-7H63.54v7a10.66,10.66,0,0,1-1.37,5.23,10.4,10.4,0,0,1-3.76,3.89A7.17,7.17,0,0,0,55,79.36v7h3.4V81.19a1.72,1.72,0,1,1,3.43-.29v5.47H82.36v-7A7.14,7.14,0,0,0,81.43,75.79Z"/></g></svg>