<svg width="212" height="213" viewBox="0 0 212 213" fill="none" xmlns="http://www.w3.org/2000/svg">
<circle cx="105.691" cy="106.406" r="102.421" fill="white" stroke="#38A8AE" stroke-width="6.40131"/>
<path d="M139.265 68.1195C140.803 66.336 141.886 64.2068 142.422 61.9137C142.958 59.6206 142.931 57.2319 142.343 54.9516C141.755 52.6712 140.625 50.567 139.047 48.8185C137.47 47.07 135.493 45.7293 133.285 44.9107C131.077 44.0922 128.704 43.8203 126.368 44.1181C124.032 44.4159 121.802 45.2746 119.871 46.6209C117.939 47.9672 116.361 49.7612 115.273 51.8494C114.184 53.9377 113.618 56.2584 113.621 58.6133C113.621 59.4604 113.285 60.2729 112.686 60.8721C112.087 61.471 111.274 61.8077 110.427 61.8077C109.58 61.8077 108.767 61.471 108.168 60.8721C107.569 60.2729 107.232 59.4604 107.232 58.6133C107.221 55.2216 108.032 51.8776 109.594 48.8675C111.158 45.8574 113.427 43.2708 116.208 41.3292C118.988 39.3875 122.199 38.1486 125.563 37.7184C128.927 37.2882 132.346 37.6796 135.526 38.859C138.706 40.0384 141.553 41.9708 143.823 44.4907C146.093 47.0106 147.719 50.0431 148.561 53.3286C149.403 56.614 149.437 60.0547 148.659 63.3561C147.882 66.6573 146.316 69.7211 144.095 72.2851C143.821 72.6029 143.487 72.8638 143.111 73.0526C142.736 73.2414 142.328 73.3544 141.909 73.3853C141.49 73.4161 141.069 73.3642 140.671 73.2324C140.272 73.1006 139.903 72.8915 139.585 72.6172C139.267 72.3429 139.006 72.0086 138.817 71.6334C138.628 71.2582 138.515 70.8497 138.484 70.4308C138.454 70.012 138.506 69.5912 138.637 69.1925C138.769 68.7936 138.978 68.4248 139.253 68.1067L139.265 68.1195ZM158.329 108.419C158.454 109.67 158.314 110.934 157.918 112.127C157.521 113.32 156.878 114.417 156.029 115.345C154.506 117.02 152.407 118.06 150.152 118.258C148.473 124.637 145.227 130.496 140.709 135.303L134.512 155.657C134.044 157.213 133.086 158.576 131.781 159.543C130.475 160.51 128.892 161.029 127.268 161.024H120.955C119.317 161.007 117.727 160.466 116.418 159.479C115.11 158.493 114.152 157.113 113.685 155.542L112.075 149.997C106.729 150.791 101.296 150.791 95.9502 149.997L94.3274 155.542C93.8559 157.108 92.896 158.482 91.588 159.464C90.28 160.446 88.6925 160.983 87.0571 160.998H80.7452C79.1206 161.004 77.5376 160.484 76.2321 159.517C74.9267 158.55 73.9685 157.187 73.5003 155.632L68.926 140.631C61.4695 137.313 54.5559 132.889 48.4184 127.509C47.1522 126.358 46.1402 124.955 45.4471 123.391C44.7541 121.827 44.3952 120.135 44.3936 118.424V106.03C44.3936 103.478 45.4072 101.031 47.2116 99.2267C49.0159 97.4223 51.4632 96.4087 54.0149 96.4087H56.6598C58.8701 94.2495 60.8095 91.8297 62.4352 89.2022L62.7929 88.6401C62.1958 86.5228 61.0497 84.6008 59.4708 83.069C58.5556 82.1305 57.9284 80.9494 57.6634 79.6654C57.3985 78.3815 57.5069 77.0485 57.9759 75.8243C58.4406 74.5483 59.2645 73.434 60.3481 72.6155C61.4318 71.7972 62.7289 71.3096 64.0834 71.2117C69.1447 70.7064 74.2441 71.6782 78.7646 74.0099C86.5027 69.774 95.191 67.5754 104.013 67.6212C126.258 67.6212 145.616 81.5229 150.241 100.37C152.301 100.599 154.222 101.519 155.691 102.981C157.161 104.443 158.09 106.36 158.329 108.419ZM151.94 109.033C151.833 108.369 151.489 107.768 150.972 107.338C150.456 106.908 149.801 106.68 149.129 106.694H147.596C146.843 106.693 146.115 106.426 145.539 105.939C144.964 105.453 144.579 104.779 144.453 104.037C141.553 86.915 124.163 74.0099 103.987 74.0099C95.8937 73.9715 87.9365 76.0931 80.9367 80.1558C80.2748 80.5396 79.5233 80.7416 78.7582 80.7416C77.9932 80.7416 77.2415 80.5396 76.5796 80.1558C72.9638 78.0485 68.7686 77.1531 64.6073 77.6004C64.4706 77.6061 64.3388 77.6531 64.2293 77.7352C64.1199 77.8173 64.0378 77.9308 63.9941 78.0603C63.9542 78.1518 63.9426 78.2529 63.9608 78.3508C63.9791 78.4487 64.0263 78.5389 64.0962 78.6098C66.9862 81.3741 68.8667 85.0268 69.4371 88.985C69.5286 89.7602 69.3332 90.5418 68.8878 91.1828C68.5726 91.6427 68.2658 92.1111 67.9678 92.5883C65.8183 96.0616 63.1999 99.222 60.1864 101.98C59.5956 102.516 58.8253 102.813 58.027 102.81H54.066C53.2087 102.81 52.3864 103.151 51.7802 103.757C51.1739 104.363 50.8333 105.185 50.8333 106.043V118.437C50.8337 119.257 51.0055 120.069 51.3378 120.819C51.67 121.569 52.1554 122.242 52.7627 122.794C58.5154 127.815 64.9998 131.929 71.9926 134.996C72.6942 135.316 73.3198 135.781 73.8286 136.36C74.3373 136.939 74.7176 137.62 74.9442 138.357L79.659 153.805C79.7294 154.051 79.8789 154.267 80.0845 154.419C80.2902 154.572 80.5402 154.652 80.7962 154.648H87.0955C87.3484 154.634 87.5918 154.545 87.7943 154.393C87.9967 154.24 88.1494 154.031 88.2326 153.792L90.4688 146.125C90.7482 145.201 91.3591 144.412 92.1842 143.909C93.0095 143.407 93.991 143.227 94.9408 143.404C100.947 144.557 107.117 144.557 113.123 143.404C113.371 143.354 113.624 143.328 113.877 143.327C114.715 143.33 115.53 143.602 116.202 144.104C116.874 144.606 117.367 145.31 117.608 146.113L119.844 153.779C119.927 154.018 120.08 154.228 120.282 154.38C120.485 154.532 120.728 154.621 120.981 154.635H127.28C127.536 154.639 127.786 154.559 127.992 154.406C128.198 154.254 128.347 154.038 128.417 153.792L134.602 133.22C134.855 132.419 135.292 131.688 135.879 131.086C140.267 126.49 143.227 120.72 144.402 114.476C144.534 113.738 144.921 113.07 145.495 112.589C146.07 112.108 146.796 111.844 147.545 111.844H149.347C149.711 111.847 150.071 111.772 150.404 111.624C150.737 111.477 151.034 111.259 151.276 110.988C151.523 110.727 151.712 110.416 151.831 110.077C151.95 109.738 151.996 109.378 151.966 109.02L151.94 109.033ZM103.77 106.579H103.668C97.0618 105.072 97.0618 102.273 97.0618 101.366C97.0618 97.8398 100.116 96.2553 102.952 96.2553C103.94 96.254 104.911 96.5017 105.778 96.975C106.644 97.4483 107.378 98.1324 107.91 98.9641C108.371 99.6757 109.095 100.175 109.924 100.353C110.754 100.53 111.619 100.371 112.331 99.9095C113.042 99.4488 113.542 98.7242 113.719 97.895C113.896 97.0659 113.737 96.2003 113.276 95.4887C111.629 92.9289 109.087 91.075 106.146 90.2883V87.8223C106.146 86.975 105.81 86.1625 105.211 85.5635C104.612 84.9645 103.799 84.6279 102.952 84.6279C102.105 84.6279 101.292 84.9645 100.693 85.5635C100.094 86.1625 99.7578 86.975 99.7578 87.8223V90.1606C97.1887 90.6855 94.8805 92.0831 93.2245 94.1164C91.5686 96.1495 90.6671 98.693 90.6731 101.315C90.6731 104.586 92.168 110.413 102.173 112.738H102.275C108.881 114.246 108.881 117.044 108.881 117.951C108.881 121.478 105.827 123.062 102.991 123.062C101.836 123.07 100.705 122.739 99.7371 122.11C98.7696 121.481 98.008 120.581 97.5473 119.523C97.3845 119.136 97.1473 118.785 96.8489 118.49C96.5505 118.195 96.1968 117.962 95.8084 117.803C95.4197 117.645 95.0038 117.565 94.5842 117.567C94.1646 117.569 93.7495 117.654 93.3628 117.817C92.976 117.98 92.6251 118.217 92.3301 118.516C92.0349 118.814 91.8015 119.167 91.6432 119.556C91.4848 119.945 91.4046 120.361 91.4069 120.78C91.4092 121.2 91.4941 121.615 91.6569 122.002C92.3813 123.727 93.4916 125.264 94.9026 126.493C96.3135 127.722 97.9876 128.612 99.7962 129.093V131.495C99.7962 132.342 100.133 133.155 100.732 133.754C101.331 134.353 102.143 134.69 102.991 134.69C103.838 134.69 104.65 134.353 105.249 133.754C105.848 133.155 106.185 132.342 106.185 131.495V129.144C108.752 128.62 111.058 127.224 112.714 125.193C114.37 123.163 115.272 120.622 115.27 118.002C115.218 114.731 113.736 108.905 103.77 106.579Z" fill="#38A8AE" stroke="white" stroke-width="0.3"/>
<path d="M126.082 57.3856H127.267C128.429 57.3856 129.287 57.1919 129.84 56.8046C130.393 56.4173 130.67 55.8086 130.67 54.9787C130.67 54.1566 130.386 53.5717 129.816 53.2239C129.255 52.8761 128.382 52.7022 127.196 52.7022H126.082V57.3856ZM126.082 60.3733V67.025H122.406V49.6907H127.457C129.813 49.6907 131.556 50.1215 132.686 50.983C133.816 51.8367 134.381 53.137 134.381 54.8838C134.381 55.9035 134.101 56.8125 133.539 57.6109C132.978 58.4012 132.184 59.0217 131.156 59.4722C133.765 63.369 135.464 65.8867 136.255 67.025H132.176L128.038 60.3733H126.082Z" fill="#38A8AE"/>
</svg>
