<svg xmlns="http://www.w3.org/2000/svg" viewBox="0 0 211.69 211.69"><defs><style>.cls-1,.cls-5{fill:#018f96;}.cls-2,.cls-3,.cls-4{fill:none;}.cls-2,.cls-4,.cls-5,.cls-6{stroke:#018f96;stroke-miterlimit:10;}.cls-2{stroke-linecap:round;stroke-width:6px;}.cls-6{fill:#683636;}</style></defs><g id="Layer_2" data-name="Layer 2"><g id="Layer_1-2" data-name="Layer 1"><rect class="cls-1" x="125.84" y="91.09" width="5" height="25.21"/><circle class="cls-2" cx="105.84" cy="105.84" r="102.84"/><polygon class="cls-3" points="101.76 89.05 101.76 94.49 105.84 94.1 105.84 89.01 101.76 89.05"/><polygon class="cls-3" points="99.76 87.07 99.76 81.89 95.35 81.64 96.06 87.11 99.76 87.07"/><polygon class="cls-3" points="89.72 89.17 91.5 95.46 95.09 95.12 94.31 89.13 89.72 89.17"/><polygon class="cls-3" points="93.32 81.53 87.46 81.2 89.15 87.18 94.05 87.13 93.32 81.53"/><polygon class="cls-3" points="96.32 89.11 97.08 94.93 99.76 94.68 99.76 89.07 96.32 89.11"/><polygon class="cls-3" points="105.84 87.01 105.84 82.22 101.76 82 101.76 87.05 105.84 87.01"/><path class="cls-1" d="M85.12,59.13h2a2.5,2.5,0,0,0,0-5h-2a2.5,2.5,0,0,0,0,5Z"/><path class="cls-1" d="M94.21,59.13h14.18a2.5,2.5,0,0,0,0-5H94.21a2.5,2.5,0,0,0,0,5Z"/><polygon class="cls-1" points="96.32 89.11 99.76 89.07 99.76 87.07 96.06 87.11 96.32 89.11"/><polygon class="cls-1" points="101.76 89.05 105.84 89.01 105.84 87.01 101.76 87.05 101.76 89.05"/><path class="cls-1" d="M94.05,87.13l-4.9.05h-.76a1,1,0,0,0,0,2h1.32l4.59,0Z"/><path class="cls-1" d="M96.06,87.11l-.71-5.47-.15-1.19a1,1,0,1,0-2,.26l.1.82.73,5.6.26,2,.78,6,.13,1a1,1,0,0,0,1,.87h.12a1,1,0,0,0,.87-1.12l-.13-1-.76-5.82Z"/><path class="cls-1" d="M105.84,80.94V95a1,1,0,1,0,2,0V80.94a1,1,0,0,0-.23-.62h0l-1.48-.08A1,1,0,0,0,105.84,80.94Z"/><path class="cls-4" d="M91.77,102.3a1.77,1.77,0,1,0,1.77,1.77A1.77,1.77,0,0,0,91.77,102.3Z"/><path class="cls-4" d="M161.89,150.29c-.51-.41-3.06-2.27-4.84-.94-2.68,2-15,12.16-17.09,13.92a4.33,4.33,0,0,0,.06,3.21,62.41,62.41,0,0,0,3.71,5.58,3.9,3.9,0,0,0,4.35-.07c2.87-2.23,16.07-12.32,17.08-13.1.39-.37,1.87-2.11-.21-4.74Z"/><path class="cls-4" d="M108.77,102.3a1.77,1.77,0,1,0,1.77,1.77A1.77,1.77,0,0,0,108.77,102.3Z"/><path class="cls-5" d="M72.2,133.78a2.5,2.5,0,0,0,2.5,2.5h32.14a2.5,2.5,0,0,0,0-5H74.7A2.5,2.5,0,0,0,72.2,133.78Z"/><path class="cls-5" d="M74.7,149.58h28.6a2.5,2.5,0,0,0,0-5H74.7a2.5,2.5,0,0,0,0,5Z"/><path class="cls-5" d="M106.84,157H74.7a2.5,2.5,0,1,0,0,5h32.14a2.5,2.5,0,1,0,0-5Z"/><path class="cls-1" d="M91.77,100.3a3.81,3.81,0,1,0,3,1.45A3.75,3.75,0,0,0,91.77,100.3Zm0,5.54a1.77,1.77,0,1,1,1.77-1.77A1.77,1.77,0,0,1,91.77,105.84Z"/><path class="cls-6" d="M120.9,171.63v-.08c-.53,0-1.07.08-1.63.08Z"/><path class="cls-5" d="M76.25,166.63c-2.52,0-4.33-.61-5.39-1.82a6.27,6.27,0,0,1-1.21-4.4l0-.18V51.88a4.59,4.59,0,0,1,1.15-3.45,5.06,5.06,0,0,1,3.27-1.17h.52v-5h-.27a10,10,0,0,0-6.93,2.5,9.35,9.35,0,0,0-2.74,7.11v108a11,11,0,0,0,2.38,8.16,10.81,10.81,0,0,0,7.56,3.49v-4.92Z"/><polygon class="cls-6" points="120.9 47.27 97.76 47.27 120.9 47.27 120.9 47.27"/><path class="cls-5" d="M127.7,158.26l-1.86.1v1.87l0,.18a6.27,6.27,0,0,1-1.21,4.4c-1.06,1.21-2.87,1.82-5.39,1.82H74.62v5h44.65c.56,0,1.1,0,1.63-.08a10.81,10.81,0,0,0,7.56-3.49,10.51,10.51,0,0,0,2.43-6.39l-3.13-3.42Z"/><path class="cls-5" d="M167.31,152.29l-3.16-4-.19-.2a9.87,9.87,0,0,0-3.58-2c.72-2.6-.55-5.58-1.69-7.27-.05-.07-5.18-7-7.63-10.46-3.16-4.42-9.2-2-9.45-1.84l-9.3,6.61-1,.7-.49-.61-3.6-4.54-1.4-1.76-9.08-11.43-.12-.12c-1.46-1.46-5.17-3.55-8.75-1s-2.63,6.67-1.58,8.46l17.5,22.35h-6.06a6.5,6.5,0,0,0-5.83,6.64c0,5.73,3.93,6.89,4.09,6.94l.24.06,9.59-.53,1.86-.1h.06l3.13,3.42.55.6.13.13a9.73,9.73,0,0,0,1.06.78,8.16,8.16,0,0,0,4.07,1.36,6.22,6.22,0,0,0,.68,3.36,70.26,70.26,0,0,0,4.1,6.17l.15.19.2.14a7.68,7.68,0,0,0,4.2,1.3,6.2,6.2,0,0,0,3.89-1.34c3-2.3,17-13,17.12-13.13l.09-.07C168.59,159.85,170.5,156.33,167.31,152.29Zm-33.74,7.87-.86-.95-1.87-2-1.83-2-1.35.07-1.82.1-9.18.51c-.5-.25-1.74-1.17-1.74-4a3.49,3.49,0,0,1,3.09-3.65h12l-2.46-3.15L125.84,143l-17-21.67c-.28-.53-1.36-2.91.78-4.43s4.41.23,4.83.62l11.37,14.31,1.48,1.85,3.44,4.33.08-.06,1.53-1.09,10.53-7.55c.73-.26,4.14-1.33,5.71.87,2.48,3.46,7.61,10.43,7.63,10.44s2.25,3.5.93,5.44a5.38,5.38,0,0,0-1.92.92c-3,2.23-16.76,13.64-17.5,14.25C136.42,162.25,134,160.47,133.57,160.16Zm31.59-1.27c-1,.78-14.21,10.87-17.08,13.1a3.9,3.9,0,0,1-4.35.07,62.41,62.41,0,0,1-3.71-5.58,4.33,4.33,0,0,1-.06-3.21c2.12-1.76,14.41-11.9,17.09-13.92,1.78-1.33,4.33.53,4.84.94l3.06,3.86C167,156.78,165.55,158.52,165.16,158.89Z"/><path class="cls-3" d="M99.76,87.07V81.89l-4.41-.25-.15-1.19a1,1,0,1,0-2,.26l.1.82-5.86-.32,1.69,6h-.76a1,1,0,0,0,0,2h1.32l1.78,6.29,3.59-.34.13,1a1,1,0,0,0,1,.87h.12a1,1,0,0,0,.87-1.12l-.13-1,2.68-.25V87.07Z"/><path class="cls-1" d="M100.76,79.94a1,1,0,0,0-1,1V95.59a1,1,0,0,0,2,0V80.94A1,1,0,0,0,100.76,79.94Z"/><path class="cls-3" d="M125,77.75a1.51,1.51,0,0,0,0,2.12l.88.88v-3.4A1.4,1.4,0,0,0,125,77.75Z"/><path class="cls-3" d="M146.17,69.26,133.31,84l-1.88-1.88-.59-.58v4.24l.66.66.82.81a1.46,1.46,0,0,0,1.06.44h.05a1.5,1.5,0,0,0,1.08-.51l13.92-15.92a1.5,1.5,0,1,0-2.26-2Z"/><path class="cls-3" d="M108.77,102.3a1.77,1.77,0,1,0,1.77,1.77A1.77,1.77,0,0,0,108.77,102.3Z"/><path class="cls-1" d="M114.12,87.93a1,1,0,0,0-1-1h-.84l-4.44,0v2l4.07,0h1.22A1,1,0,0,0,114.12,87.93Z"/><path class="cls-1" d="M91.16,95.61a1,1,0,0,0-1.31.54l-.14.32-2.22,5.28h1.33a3.73,3.73,0,0,1,5.9,0h11.1a3.73,3.73,0,0,1,5.9,0h.44a1,1,0,0,0,0-2H90.5l1-2.28.23-.55A1,1,0,0,0,91.16,95.61Z"/><path class="cls-1" d="M108.77,100.3a3.81,3.81,0,1,0,3,1.45A3.75,3.75,0,0,0,108.77,100.3Zm0,5.54a1.77,1.77,0,1,1,1.77-1.77A1.77,1.77,0,0,1,108.77,105.84Z"/><path class="cls-5" d="M130.84,61.4V51.88a9.35,9.35,0,0,0-2.74-7.11,10,10,0,0,0-6.93-2.5H74.62v5h46.8a5.06,5.06,0,0,1,3.27,1.17,4.59,4.59,0,0,1,1.15,3.45V61.4h5Z"/><path class="cls-1" d="M107.84,80.94v1.39l5.16.29c-.16,1-.43,2.7-.72,4.33h.84a1,1,0,0,1,0,2h-1.22c-.17.9-.34,1.69-.49,2.22a4.21,4.21,0,0,1-2.18,2.61l-1.4.13V95a1,1,0,1,1-2,0V94.1l-4.08.39v1.1a1,1,0,0,1-2,0v-.91l-2.68.25.13,1A1,1,0,0,1,96.34,97h-.12a1,1,0,0,1-1-.87l-.13-1-3.59.34-1.78-6.29H88.4a1,1,0,0,1,0-2h.76l-1.69-6,5.86.32-.1-.82a1,1,0,1,1,2-.26l.15,1.19,4.41.25v-1a1,1,0,0,1,2,0V82l4.08.22V80.94a1,1,0,0,1,.29-.7L102,80l-3-.17-12.51-.69-5-3.6a1,1,0,1,0-1.17,1.62l4.93,3.57,4.46,15.73.14-.32a1,1,0,1,1,1.84.77l-.23.55,18.14-1.71.27-.07a6.3,6.3,0,0,0,3.48-4c.67-2.47,1.75-9.57,1.8-9.87l.16-1.09-7.7-.42A1,1,0,0,1,107.84,80.94Z"/><path class="cls-1" d="M151,61.4H123.34a2.8,2.8,0,0,0-3,3V92.05a2.79,2.79,0,0,0,3,3H151a2.9,2.9,0,0,0,3-3V64.36A2.76,2.76,0,0,0,151,61.4Zm-2.6,9.83L134.51,87.15a1.5,1.5,0,0,1-1.08.51h-.05a1.46,1.46,0,0,1-1.06-.44l-.82-.81-.66-.66-4.43-4.43-.57-.57-.88-.88a1.51,1.51,0,0,1,0-2.12,1.59,1.59,0,0,1,1.38-.38,1.46,1.46,0,0,1,.74.38l3.76,3.76.59.58L133.31,84l12.86-14.71a1.5,1.5,0,1,1,2.26,2Z"/><rect class="cls-1" x="125.84" y="118.99" width="5" height="5.06"/></g></g></svg>