<svg xmlns="http://www.w3.org/2000/svg" viewBox="0 0 171 242"><defs><style>.cls-1{fill:#d8d8d8;fill-opacity:0.5;}.cls-2{isolation:isolate;}.cls-3,.cls-4{fill:#454f5b;}.cls-4{fill-rule:evenodd;}</style></defs><g id="Layer_20" data-name="Layer 20"><g id="Layer_2" data-name="Layer 2"><g id="Layer_1-2" data-name="Layer 1-2"><path class="cls-1" d="M20,0H151a20.06,20.06,0,0,1,20,20V151a20.06,20.06,0,0,1-20,20H20A20.06,20.06,0,0,1,0,151V20A20.06,20.06,0,0,1,20,0Z"/><g class="cls-2"><g class="cls-2"><path class="cls-3" d="M36.92,203.05l1-2.2a7.48,7.48,0,0,0,4.16,1.32c1.73,0,2.43-.58,2.43-1.35,0-2.36-7.32-.74-7.32-5.42,0-2.15,1.73-3.93,5.31-3.93a8.43,8.43,0,0,1,4.37,1.12L46,194.8a7.06,7.06,0,0,0-3.49-1c-1.73,0-2.39.65-2.39,1.44,0,2.32,7.32.72,7.32,5.35,0,2.11-1.74,3.91-5.34,3.91A9.05,9.05,0,0,1,36.92,203.05Z"/><path class="cls-3" d="M55.45,203.82a4,4,0,0,1-2.29.61c-2.29,0-3.62-1.17-3.62-3.47v-4H48.05v-2.16h1.49v-2.36h2.81v2.36h2.41V197H52.35v3.94a1.13,1.13,0,0,0,1.21,1.28,1.84,1.84,0,0,0,1.13-.36Z"/><path class="cls-3" d="M65.6,198.76v5.53H63v-1.21A3.16,3.16,0,0,1,60,204.43c-2.27,0-3.62-1.26-3.62-2.93s1.21-2.9,4.16-2.9h2.23c0-1.21-.72-1.91-2.23-1.91a4.63,4.63,0,0,0-2.79.9l-1-2a7.42,7.42,0,0,1,4.18-1.17C63.89,194.46,65.6,195.83,65.6,198.76Zm-2.81,2.47v-1H60.87c-1.32,0-1.73.48-1.73,1.13s.59,1.17,1.58,1.17A2.06,2.06,0,0,0,62.79,201.23Z"/><path class="cls-3" d="M74.38,203.82a3.94,3.94,0,0,1-2.28.61c-2.29,0-3.62-1.17-3.62-3.47v-4H67v-2.16h1.5v-2.36h2.81v2.36H73.7V197H71.29v3.94a1.13,1.13,0,0,0,1.2,1.28,1.87,1.87,0,0,0,1.14-.36Z"/><path class="cls-3" d="M75.62,191.69a1.61,1.61,0,0,1,1.75-1.57,1.58,1.58,0,0,1,1.75,1.51,1.76,1.76,0,0,1-3.5.06ZM76,194.6h2.8v9.69H76Z"/><path class="cls-3" d="M80.66,199.45a5.33,5.33,0,1,1,5.33,5C82.91,204.43,80.66,202.36,80.66,199.45Zm7.8,0A2.48,2.48,0,1,0,86,202.13,2.45,2.45,0,0,0,88.46,199.45Z"/></g><g class="cls-2"><path class="cls-3" d="M103.08,198.74v5.55h-2.81v-5.11c0-1.57-.72-2.29-2-2.29S96,197.72,96,199.5v4.79H93.18V194.6h2.68v1.14a4.24,4.24,0,0,1,3.2-1.28C101.35,194.46,103.08,195.79,103.08,198.74Z"/></g><g class="cls-2"><path class="cls-3" d="M115.15,200.24h-7.33a2.58,2.58,0,0,0,2.78,1.94,3.29,3.29,0,0,0,2.43-.93l1.49,1.62a5.09,5.09,0,0,1-4,1.56c-3.34,0-5.52-2.1-5.52-5a4.93,4.93,0,0,1,5.16-5,4.8,4.8,0,0,1,5,5C115.21,199.7,115.17,200,115.15,200.24Zm-7.36-1.64h4.77a2.31,2.31,0,0,0-2.38-2A2.29,2.29,0,0,0,107.79,198.6Z"/></g><g class="cls-2"><path class="cls-3" d="M123.09,194.46v2.59c-.23,0-.41,0-.63,0a2.37,2.37,0,0,0-2.57,2.7v4.57h-2.81V194.6h2.68v1.28A3.92,3.92,0,0,1,123.09,194.46Z"/></g><g class="cls-2"><path class="cls-3" d="M134.72,194.6l-4.37,10.28c-.94,2.34-2.27,3.05-4,3.05a4.29,4.29,0,0,1-2.7-.89l1-2a2.51,2.51,0,0,0,1.58.61c.77,0,1.21-.34,1.59-1.21l0-.09-4.19-9.76h2.89l2.72,6.57L132,194.6Z"/></g><g class="cls-2"><path class="cls-3" d="M61.77,226.09,60,224.29A5.6,5.6,0,0,1,55.81,226c-2.46,0-4.23-1.3-4.23-3.21,0-1.49.87-2.59,3.17-3.92-1.22-1.26-1.58-2-1.58-3,0-1.6,1.24-2.68,3.18-2.68,1.79,0,2.94.93,2.94,2.5,0,1.26-.76,2.14-2.81,3.33l3.46,3.56a8,8,0,0,0,.84-2.43l1,.33a8.74,8.74,0,0,1-1.12,2.9l1.8,1.85Zm-2.5-2.58-3.8-3.9c-2,1.15-2.63,1.94-2.63,3.06,0,1.37,1.23,2.27,3,2.27A4.36,4.36,0,0,0,59.27,223.51Zm-4.91-7.65c0,.74.27,1.26,1.42,2.43,1.82-1,2.41-1.67,2.41-2.57s-.67-1.57-1.84-1.57S54.36,214.85,54.36,215.86Z"/><path class="cls-3" d="M68.39,219.59A6.33,6.33,0,0,1,75,213.18,6.12,6.12,0,0,1,79.61,215l-.84.85A5,5,0,0,0,75,214.37a5.22,5.22,0,1,0,0,10.44,5,5,0,0,0,3.73-1.51l.84.84A6.12,6.12,0,0,1,75,226,6.32,6.32,0,0,1,68.39,219.59Z"/></g><g class="cls-2"><path class="cls-3" d="M87,216.35v1.24l-.3,0c-2,0-3.19,1.26-3.19,3.49v4.83H82.18v-9.47h1.23v1.85A3.56,3.56,0,0,1,87,216.35Z"/></g><g class="cls-2"><path class="cls-3" d="M96.39,220v5.87H95.17v-1.48A3.56,3.56,0,0,1,91.91,226c-2.15,0-3.46-1.12-3.46-2.76,0-1.45.94-2.68,3.66-2.68h3V220c0-1.62-.92-2.51-2.68-2.51a4.85,4.85,0,0,0-3.15,1.12l-.58-1a6.09,6.09,0,0,1,3.86-1.27C95,216.35,96.39,217.57,96.39,220Zm-1.28,3V221.5h-3c-1.84,0-2.43.72-2.43,1.69s.88,1.78,2.4,1.78A3,3,0,0,0,95.11,223Z"/><path class="cls-3" d="M101.32,215.3v1.12h2.92v1.08h-2.88v8.39h-1.28V217.5H98.39v-1.08h1.69v-1.17a2.61,2.61,0,0,1,2.86-2.81,3,3,0,0,1,1.89.59l-.43,1a2.13,2.13,0,0,0-1.4-.47C101.9,213.52,101.32,214.13,101.32,215.3Z"/><path class="cls-3" d="M111,225.31a3,3,0,0,1-2,.67,2.51,2.51,0,0,1-2.77-2.76V217.5h-1.69v-1.08h1.69v-2.07h1.28v2.07h2.88v1.08h-2.88v5.65a1.51,1.51,0,0,0,1.64,1.73,2.12,2.12,0,0,0,1.4-.48Z"/><path class="cls-3" d="M112,224.81l.57-1a5.7,5.7,0,0,0,3.37,1.06c1.8,0,2.54-.61,2.54-1.55,0-2.46-6.14-.52-6.14-4.26,0-1.55,1.33-2.7,3.75-2.7a6.39,6.39,0,0,1,3.34.88l-.55,1a4.9,4.9,0,0,0-2.79-.8c-1.72,0-2.47.66-2.47,1.56,0,2.56,6.14.63,6.14,4.27,0,1.64-1.44,2.7-3.91,2.7A6.28,6.28,0,0,1,112,224.81Z"/></g></g><path class="cls-4" d="M94.42,33h-25a8.94,8.94,0,0,0-8.92,8.92v64.2a1.8,1.8,0,0,0,1.79,1.78H73a1.79,1.79,0,0,0,0-3.57H64.1v-3.56h1.78a1.79,1.79,0,0,0,.27-3.57,1.22,1.22,0,0,0-.27,0H64.1V93.63h1.78a1.78,1.78,0,0,0,0-3.56H64.1V86.5h1.78a1.79,1.79,0,1,0,.27-3.57,1.22,1.22,0,0,0-.27,0H64.1V79.37H73a1.79,1.79,0,0,0,0-3.57H64.1V72.23h1.78a1.78,1.78,0,0,0,0-3.56H64.1V65.1h1.78a1.79,1.79,0,0,0,.27-3.57H64.1V58h1.78a1.79,1.79,0,0,0,.27-3.57H64.1v-3.6H73a1.78,1.78,0,1,0,0-3.56H64.1V41.92a5.37,5.37,0,0,1,5.35-5.35h25a5.37,5.37,0,0,1,5.35,5.35v89.16a5.37,5.37,0,0,1-5.35,5.35h-25a5.37,5.37,0,0,1-5.35-5.35V113.25a1.79,1.79,0,0,0-3.57,0v17.83A8.94,8.94,0,0,0,69.45,140h25a8.93,8.93,0,0,0,8.91-8.92V41.92A8.93,8.93,0,0,0,94.42,33ZM39.13,56.18v64.2a1.79,1.79,0,0,0,3.57,0V56.18a1.79,1.79,0,0,0-3.57,0ZM39.32,34a1.86,1.86,0,0,1,2.55-.64,2,2,0,0,1,.64.64l7.12,14.24a1.72,1.72,0,0,1,.2.8V120.4a1.78,1.78,0,0,1-3.56,0V50.83H40.92a1.79,1.79,0,1,1-.27-3.57h4.51l-4.24-8.49-5.35,10.7v81.61a5.35,5.35,0,0,0,10.7,0V129.3H40.92a1.79,1.79,0,0,1-.27-3.57,1.22,1.22,0,0,1,.27,0h7.13a1.78,1.78,0,0,1,1.78,1.78v3.57a8.92,8.92,0,0,1-17.83.6q0-.3,0-.6v-82a1.71,1.71,0,0,1,.19-.8Zm42.61,81a7.14,7.14,0,1,1-7.13,7.15h0A7.14,7.14,0,0,1,81.93,115Zm0,3.57a3.57,3.57,0,1,0,3.57,3.57h0a3.57,3.57,0,0,0-3.57-3.54Zm39.24,1.78A1.78,1.78,0,0,1,123,118.6h12.5v-8.92a5.37,5.37,0,0,0-5.35-5.35H123a5.37,5.37,0,0,0-5.35,5.35v21.4a5.37,5.37,0,0,0,5.35,5.35h7.13a5.37,5.37,0,0,0,5.35-5.35v-3.56a1.79,1.79,0,1,1,3.57-.27,1.22,1.22,0,0,1,0,.27v3.56a8.94,8.94,0,0,1-8.92,8.92H123a8.94,8.94,0,0,1-8.92-8.92v-21.4a8.93,8.93,0,0,1,8.92-8.91h7.13a8.93,8.93,0,0,1,8.92,8.91v10.7a1.8,1.8,0,0,1-1.78,1.79H123a1.78,1.78,0,0,1-1.83-1.73v-.09Z"/></g></g></g></svg>