<svg xmlns="http://www.w3.org/2000/svg" viewBox="0 0 171 242"><defs><style>.cls-1{fill:#d8d8d8;fill-opacity:0.5;}.cls-2{isolation:isolate;}.cls-3{fill:#454f5b;}</style></defs><g id="Layer_21" data-name="Layer 21"><g id="Layer_1-2" data-name="Layer 1-2"><path class="cls-1" d="M20,0H151a20.06,20.06,0,0,1,20,20V151a20.06,20.06,0,0,1-20,20H20A20.06,20.06,0,0,1,0,151V20A20.06,20.06,0,0,1,20,0Z"/><g class="cls-2"><g class="cls-2"><path class="cls-3" d="M66.34,183.06h-4v-2.37h11v2.37h-4v10.23H66.34Z"/></g><g class="cls-2"><path class="cls-3" d="M72.94,188.45a5.33,5.33,0,1,1,5.33,5C75.19,193.43,72.94,191.36,72.94,188.45Zm7.79,0a2.48,2.48,0,1,0-2.46,2.68A2.45,2.45,0,0,0,80.73,188.45Z"/></g><g class="cls-2"><path class="cls-3" d="M94.79,183.6l-4.37,10.28c-.94,2.34-2.27,3.05-4,3.05a4.29,4.29,0,0,1-2.7-.89l1-2a2.51,2.51,0,0,0,1.58.61c.78,0,1.21-.34,1.58-1.21l0-.09-4.19-9.76h2.9l2.71,6.57,2.74-6.57Z"/></g><g class="cls-2"><path class="cls-3" d="M94.86,192.39l.94-2a6.57,6.57,0,0,0,3.36.94c1.3,0,1.79-.34,1.79-.88,0-1.59-5.86,0-5.86-3.84,0-1.83,1.66-3.13,4.49-3.13a7.92,7.92,0,0,1,3.72.85l-.93,2a5.58,5.58,0,0,0-2.79-.72c-1.26,0-1.8.4-1.8.9,0,1.66,5.85.06,5.85,3.88,0,1.8-1.68,3.07-4.58,3.07A8.36,8.36,0,0,1,94.86,192.39Z"/><path class="cls-3" d="M108.16,191.67a4.2,4.2,0,0,1-.48,1.8l-1,2.59h-1.78l.79-2.86a1.56,1.56,0,0,1-1-1.53,1.74,1.74,0,0,1,3.47,0Z"/></g><g class="cls-2"><path class="cls-3" d="M56.38,208.59h1.28v4.81A7,7,0,0,1,53,215a6.41,6.41,0,1,1,0-12.82A6.2,6.2,0,0,1,57.73,204l-.83.84a5.32,5.32,0,1,0-3.82,9,5.47,5.47,0,0,0,3.3-1Z"/><path class="cls-3" d="M68.29,209v5.87H67.07v-1.48A3.54,3.54,0,0,1,63.81,215c-2.14,0-3.46-1.12-3.46-2.76,0-1.45.94-2.68,3.66-2.68h3V209c0-1.62-.92-2.51-2.69-2.51a4.87,4.87,0,0,0-3.15,1.12l-.57-1a6.06,6.06,0,0,1,3.85-1.27C66.91,205.35,68.29,206.57,68.29,209ZM67,212V210.5h-3c-1.84,0-2.44.72-2.44,1.69S62.5,214,64,214A3,3,0,0,0,67,212Z"/></g><g class="cls-2"><path class="cls-3" d="M87.4,209.4v5.49H86.12v-5.37c0-2-1-3-2.72-3-1.94,0-3.16,1.26-3.16,3.42v5H79v-5.37c0-2-1-3-2.74-3-1.93,0-3.17,1.26-3.17,3.42v5H71.77v-9.47H73v1.73a3.81,3.81,0,0,1,3.47-1.8,3.4,3.4,0,0,1,3.37,2,4.1,4.1,0,0,1,3.74-2C85.89,205.35,87.4,206.68,87.4,209.4Z"/></g><g class="cls-2"><path class="cls-3" d="M99.15,210.55H91.23a3.5,3.5,0,0,0,3.72,3.3,3.72,3.72,0,0,0,2.9-1.25l.72.83A4.64,4.64,0,0,1,94.92,215a4.7,4.7,0,0,1-5-4.83,4.56,4.56,0,0,1,4.63-4.8,4.51,4.51,0,0,1,4.59,4.8C99.17,210.26,99.15,210.41,99.15,210.55Zm-7.92-1h6.71a3.36,3.36,0,0,0-6.71,0Z"/><path class="cls-3" d="M100.46,213.81l.58-1a5.65,5.65,0,0,0,3.36,1.06c1.8,0,2.54-.61,2.54-1.55,0-2.46-6.14-.52-6.14-4.26,0-1.55,1.33-2.7,3.75-2.7a6.45,6.45,0,0,1,3.35.88l-.56,1a4.9,4.9,0,0,0-2.79-.8c-1.71,0-2.47.66-2.47,1.56,0,2.56,6.14.63,6.14,4.27,0,1.64-1.44,2.7-3.91,2.7A6.3,6.3,0,0,1,100.46,213.81Z"/><path class="cls-3" d="M124.58,215.09l-1.74-1.8a5.6,5.6,0,0,1-4.22,1.71c-2.46,0-4.23-1.3-4.23-3.21,0-1.49.87-2.59,3.17-3.92-1.22-1.26-1.58-2-1.58-3,0-1.6,1.24-2.68,3.18-2.68s2.94.93,2.94,2.5c0,1.26-.76,2.14-2.81,3.33l3.46,3.56a8,8,0,0,0,.84-2.43l1,.33a9,9,0,0,1-1.12,2.9l1.8,1.85Zm-2.5-2.58-3.8-3.9c-2,1.15-2.63,1.94-2.63,3.06,0,1.37,1.23,2.27,3,2.27A4.36,4.36,0,0,0,122.08,212.51Zm-4.91-7.65c0,.74.26,1.26,1.42,2.43,1.82-1,2.41-1.67,2.41-2.57s-.67-1.57-1.84-1.57S117.17,203.85,117.17,204.86Z"/></g><g class="cls-2"><path class="cls-3" d="M47.85,228.21c0,2.68-1.94,4.3-5.15,4.3H39.31v4H38v-12.6H42.7C45.91,223.89,47.85,225.51,47.85,228.21Zm-1.33,0c0-2-1.34-3.17-3.86-3.17H39.31v6.3h3.35C45.18,231.34,46.52,230.19,46.52,228.21Z"/></g><g class="cls-2"><path class="cls-3" d="M57.52,230.62v5.87H56.3V235A3.56,3.56,0,0,1,53,236.58c-2.15,0-3.46-1.12-3.46-2.75,0-1.46.94-2.69,3.66-2.69h3v-.57c0-1.62-.92-2.51-2.68-2.51a4.85,4.85,0,0,0-3.15,1.12l-.58-1A6,6,0,0,1,53.69,227C56.13,227,57.52,228.17,57.52,230.62Zm-1.28,3V232.1h-3c-1.84,0-2.43.72-2.43,1.69s.88,1.78,2.4,1.78A3,3,0,0,0,56.24,233.65Z"/></g><g class="cls-2"><path class="cls-3" d="M65.76,227v1.24l-.3,0c-2,0-3.19,1.26-3.19,3.5v4.82H61V227h1.23v1.85A3.56,3.56,0,0,1,65.76,227Z"/></g><g class="cls-2"><path class="cls-3" d="M73.46,235.91a3,3,0,0,1-2,.67,2.51,2.51,0,0,1-2.77-2.75V228.1H67V227h1.69V225H70V227h2.88v1.08H70v5.65a1.51,1.51,0,0,0,1.64,1.73A2.12,2.12,0,0,0,73,235Z"/></g><g class="cls-2"><path class="cls-3" d="M83.56,227l-4.73,10.6c-.8,1.86-1.8,2.45-3.16,2.45a3.22,3.22,0,0,1-2.3-.86l.59-1a2.37,2.37,0,0,0,1.73.72c.85,0,1.43-.39,2-1.58l.41-.92L73.84,227h1.33l3.57,8,3.56-8Z"/><path class="cls-3" d="M89.14,235l.52-1a6.15,6.15,0,0,0,4.16,1.53c2.36,0,3.38-1,3.38-2.23,0-3.46-7.76-1.33-7.76-6,0-1.86,1.44-3.46,4.65-3.46A7.15,7.15,0,0,1,98,224.89L97.55,226a6.43,6.43,0,0,0-3.46-1.05c-2.31,0-3.33,1-3.33,2.29,0,3.46,7.76,1.37,7.76,6,0,1.85-1.48,3.44-4.7,3.44A6.83,6.83,0,0,1,89.14,235Z"/></g><g class="cls-2"><path class="cls-3" d="M109.86,231v5.49h-1.28v-5.37c0-2-1-3-2.85-3a3.1,3.1,0,0,0-3.31,3.42v5h-1.28V223.13h1.28v5.55A4,4,0,0,1,106,227C108.27,227,109.86,228.28,109.86,231Z"/></g><g class="cls-2"><path class="cls-3" d="M112.41,231.75a4.82,4.82,0,1,1,4.82,4.83A4.65,4.65,0,0,1,112.41,231.75Zm8.33,0a3.52,3.52,0,1,0-3.51,3.7A3.45,3.45,0,0,0,120.74,231.75Z"/><path class="cls-3" d="M134.25,231.75a4.59,4.59,0,0,1-4.72,4.83,4.14,4.14,0,0,1-3.6-1.87V240h-1.28V227h1.22v1.87a4.13,4.13,0,0,1,3.66-1.94A4.58,4.58,0,0,1,134.25,231.75Zm-1.28,0a3.53,3.53,0,1,0-3.53,3.7A3.49,3.49,0,0,0,133,231.75Z"/></g></g><path class="cls-3" d="M48.83,131.64H30A1.49,1.49,0,0,1,28.51,130l3.74-41.85a1.49,1.49,0,0,1,1.49-1.37H45.09a1.49,1.49,0,0,1,1.49,1.37L50.32,130a1.49,1.49,0,0,1-.38,1.14A1.52,1.52,0,0,1,48.83,131.64Zm-17.19-3H47.19L43.72,89.78H35.11Z"/><path class="cls-3" d="M48.83,89.76H30a1.5,1.5,0,0,1-1.5-1.5,6.51,6.51,0,0,1,6.5-6.5h8.83a6.51,6.51,0,0,1,6.5,6.5A1.5,1.5,0,0,1,48.83,89.76Zm-17-3H47a3.5,3.5,0,0,0-3.16-2H35A3.5,3.5,0,0,0,31.84,86.76Z"/><path class="cls-3" d="M44.26,84.76H34.58a1.5,1.5,0,0,1-1.48-1.27l-1.87-11.9a1.49,1.49,0,0,1,1.48-1.73H46.13a1.47,1.47,0,0,1,1.14.53,1.49,1.49,0,0,1,.34,1.2l-1.87,11.9A1.5,1.5,0,0,1,44.26,84.76Zm-8.4-3H43l1.4-8.9H34.46Z"/><path class="cls-3" d="M39.45,72A1.51,1.51,0,0,1,38,70.52l-.06-9.07a1.5,1.5,0,0,1,1.49-1.51h0a1.5,1.5,0,0,1,1.5,1.49L41,70.5A1.5,1.5,0,0,1,39.46,72Z"/><path class="cls-3" d="M43.78,67.13H35a1.5,1.5,0,0,1,0-3h8.78a1.5,1.5,0,0,1,0,3Z"/><path class="cls-3" d="M53.66,139.32H25.2a1.5,1.5,0,0,1-1.5-1.5v-2.89A6.33,6.33,0,0,1,30,128.62H48.85a6.34,6.34,0,0,1,6.31,6.31v2.89A1.5,1.5,0,0,1,53.66,139.32Zm-27-3H52.16v-1.39a3.32,3.32,0,0,0-3.31-3.31H30a3.32,3.32,0,0,0-3.3,3.31Z"/><path class="cls-3" d="M76.19,90.07h0a25.69,25.69,0,0,1,0-51.38h0a25.69,25.69,0,0,1,0,51.38Zm0-48.38a22.69,22.69,0,0,0,0,45.38h0a22.69,22.69,0,0,0,0-45.38Z"/><path class="cls-3" d="M56.13,51.38a6.4,6.4,0,0,1-2.45-5H46.84a13.24,13.24,0,0,0,5,10.37Zm-2.45-5A6.41,6.41,0,0,1,60.07,40V33.13A13.25,13.25,0,0,0,46.84,46.36ZM60.07,40a6.45,6.45,0,0,1,5.54,3.2l5.89-3.49a13.3,13.3,0,0,0-11.43-6.55Z"/><path class="cls-3" d="M56.07,52.42a1.51,1.51,0,0,1-1-.37A7.57,7.57,0,1,1,65,40.64a7.24,7.24,0,0,1,1.28,1.43,1.5,1.5,0,0,1-2.48,1.7,4.56,4.56,0,0,0-7.22-.43,4.57,4.57,0,0,0,.45,6.45,1.5,1.5,0,0,1-1,2.63Z"/><path class="cls-3" d="M86.74,43.14A6.38,6.38,0,0,1,92.26,40V33.13A13.24,13.24,0,0,0,80.82,39.7ZM92.26,40a6.4,6.4,0,0,1,6.39,6.39h6.85A13.24,13.24,0,0,0,92.28,33.13h0Zm6.39,6.39a6.29,6.29,0,0,1-2.58,5.11l4.08,5.5a13.22,13.22,0,0,0,5.35-10.61Z"/><path class="cls-3" d="M96.2,52.5a1.5,1.5,0,0,1-1-2.64,4.73,4.73,0,0,0,.84-1,4.6,4.6,0,0,0-1.27-6.36,4.59,4.59,0,0,0-6.35,1.28A1.5,1.5,0,0,1,86,42.17a7.58,7.58,0,0,1,10.51-2.11,7.58,7.58,0,0,1,2.11,10.51,7.73,7.73,0,0,1-1.4,1.57A1.48,1.48,0,0,1,96.2,52.5Z"/><path class="cls-3" d="M76.17,75a1.5,1.5,0,0,1-1.5-1.5V70a1.5,1.5,0,0,1,1.5-1.5h2.59a1.5,1.5,0,0,1,0,3H77.67v2A1.5,1.5,0,0,1,76.17,75Z"/><path class="cls-3" d="M53.43,113.78a1.51,1.51,0,0,1-1.47-1.2,35.15,35.15,0,0,1-.73-7.16,32.18,32.18,0,0,1,8.67-22.6,1.5,1.5,0,0,1,2.2,2,29.22,29.22,0,0,0-7.87,20.53A32.25,32.25,0,0,0,54.9,112a1.49,1.49,0,0,1-1.17,1.77A1.53,1.53,0,0,1,53.43,113.78Z"/><path class="cls-3" d="M76.12,135.21a21.42,21.42,0,0,1-11.4-3.29,1.5,1.5,0,0,1,1.6-2.54,18.38,18.38,0,0,0,19.07.32,1.5,1.5,0,1,1,1.5,2.6A21.43,21.43,0,0,1,76.12,135.21Z"/><path class="cls-3" d="M98.82,113.92l-.32,0a1.51,1.51,0,0,1-1.15-1.79,30.57,30.57,0,0,0,.71-6.68,29.18,29.18,0,0,0-7.89-20.53,1.5,1.5,0,0,1,2.2-2,32.13,32.13,0,0,1,8.69,22.6,34,34,0,0,1-.77,7.29A1.51,1.51,0,0,1,98.82,113.92Z"/><path class="cls-3" d="M96.29,139.19a13,13,0,0,1-11.52-7.57,15.49,15.49,0,0,1-1.5-6.62c0-7.86,5.84-14.26,13-14.26h0a12,12,0,0,1,2.86.35c5.94,1.42,10.1,7.12,10.1,13.85C109.3,132.8,103.46,139.19,96.29,139.19Zm0-25.45h0c-5.54,0-10,5.05-10,11.26a12.39,12.39,0,0,0,1.22,5.35,10,10,0,0,0,8.83,5.84c5.49,0,10-5.05,10-11.25,0-5.26-3.28-9.85-7.81-10.93A8.88,8.88,0,0,0,96.33,113.74Z"/><path class="cls-3" d="M60.11,137.91a1.5,1.5,0,0,1-.71-2.82A10.92,10.92,0,0,0,64.15,130a12,12,0,0,0,1.1-5.09c0-6.21-4.49-11.26-10-11.26a9.46,9.46,0,0,0-1.58.14,10.46,10.46,0,0,0-1.87.56l-1.86.83a1.5,1.5,0,1,1-1.22-2.74l1.91-.85a13.2,13.2,0,0,1,2.5-.75,11.85,11.85,0,0,1,2.12-.19c7.17,0,13,6.39,13,14.25a14.88,14.88,0,0,1-1.37,6.33,13.85,13.85,0,0,1-6.06,6.55A1.5,1.5,0,0,1,60.11,137.91Z"/><path class="cls-3" d="M105.62,108.91a1.58,1.58,0,0,1-.52-.09L99,106.58a1.5,1.5,0,0,1,1-2.82l6.06,2.24a1.5,1.5,0,0,1-.52,2.91Z"/><path class="cls-3" d="M110.54,95.74a1.58,1.58,0,0,1-.52-.09L94.48,89.88a1.5,1.5,0,0,1,1-2.82l15.54,5.77a1.5,1.5,0,0,1-.52,2.91Z"/><path class="cls-3" d="M48.75,108.14a1.5,1.5,0,0,1-.43-2.94l1.88-.56,1.95-.73a1.5,1.5,0,0,1,1.06,2.8l-2,.75-.1,0-1.93.58A1.59,1.59,0,0,1,48.75,108.14Z"/><path class="cls-3" d="M47.42,93.79a1.51,1.51,0,0,1-1.4-1,1.49,1.49,0,0,1,.87-1.93L49,90.08l7.83-2.92a1.5,1.5,0,1,1,1,2.82L48,93.69A1.39,1.39,0,0,1,47.42,93.79Z"/><path class="cls-3" d="M145.8,134.74a1.5,1.5,0,0,1-1.41-1l-16.5-44.51a1.5,1.5,0,0,1,2.82-1l16.5,44.51a1.51,1.51,0,0,1-.89,1.93A1.58,1.58,0,0,1,145.8,134.74Z"/><path class="cls-3" d="M115.18,137.78a5.75,5.75,0,1,1,5.75-5.75A5.76,5.76,0,0,1,115.18,137.78Zm0-8.5a2.75,2.75,0,1,0,2.75,2.75A2.75,2.75,0,0,0,115.18,129.28Z"/><path class="cls-3" d="M125.76,84.07A1.73,1.73,0,0,0,129,82.88Zm-3.61-14.68,1.6-.59a1.71,1.71,0,0,0-3.21,0ZM129,82.88,123.75,68.8,120.54,70l5.22,14.08ZM120.54,68.8l-17.6,47.51,3.21,1.19L123.75,70Z"/><path class="cls-3" d="M108.48,124.66v-3a2.74,2.74,0,0,0,1.23-5.18,2.76,2.76,0,0,0-2.09-.17,2.73,2.73,0,0,0-1.59,1.37l-2.68-1.36a5.74,5.74,0,1,1,5.13,8.34Z"/><path class="cls-3" d="M129.06,131.59h0a5.75,5.75,0,1,1,5.76-5.75A5.75,5.75,0,0,1,129.05,131.59Zm0-8.5a2.75,2.75,0,0,0,0,5.5h0a2.75,2.75,0,0,0,0-5.5Z"/><path class="cls-3" d="M141.09,136.57a5.76,5.76,0,0,1,2.52-9.6l.8,2.9a2.74,2.74,0,0,0-1.2,4.58Z"/><path class="cls-3" d="M122.15,114.94h0a5.75,5.75,0,1,1,5.77-5.75A5.75,5.75,0,0,1,122.13,114.94Zm0-8.5a2.75,2.75,0,0,0,0,5.5l0,1.5v-1.5a2.75,2.75,0,0,0,0-5.5Z"/><path class="cls-3" d="M138.05,120.39a5.79,5.79,0,0,1-1.74-.27,5.75,5.75,0,0,1,.42-11.08l.68,2.92a2.41,2.41,0,0,0-.63.24,2.75,2.75,0,1,0,2.53,4.88l1.38,2.66A5.72,5.72,0,0,1,138.05,120.39Z"/><path class="cls-3" d="M121,75.78l-1.5-2.6a5.71,5.71,0,0,1,2.85-.74,5.92,5.92,0,0,1,2.16.42l-1.12,2.78a3,3,0,0,0-1.06-.2A2.74,2.74,0,0,0,121,75.78Z"/><path class="cls-3" d="M122.32,83.92a5.77,5.77,0,0,1-2.56-.61,5.69,5.69,0,0,1-2.82-3.18l2.82-1a2.74,2.74,0,0,0,5,.3l2.68,1.34a5.78,5.78,0,0,1-5.13,3.17Z"/><path class="cls-3" d="M116.83,98.72a5.72,5.72,0,0,1-5.38-3.81l2.82-1a2.74,2.74,0,0,0,2.57,1.81h0a2.8,2.8,0,0,0,1.37-.36,2.75,2.75,0,1,0-2.73-4.78L114,88a5.75,5.75,0,1,1,2.82,10.74Z"/><path class="cls-3" d="M130.08,101.36A5.74,5.74,0,0,1,129,90l.58,2.94a2.74,2.74,0,0,0,.56,5.43h0a2.65,2.65,0,0,0,1.35-.36l1.5,2.6a6.16,6.16,0,0,1-2.86.76Z"/><path class="cls-3" d="M122.15,70.89a1.18,1.18,0,0,1-.37,0,1.5,1.5,0,0,1-1.13-1.46l.07-14.17a1.5,1.5,0,0,1,1.5-1.49h0a1.5,1.5,0,0,1,1.49,1.51l0,8.21,3.44-6.33a1.5,1.5,0,1,1,2.64,1.44l-6.29,11.56A1.51,1.51,0,0,1,122.15,70.89Z"/><path class="cls-3" d="M122.15,70.89a1.51,1.51,0,0,1-1.31-.77L114.69,59a1.5,1.5,0,0,1,2.62-1.46l5.53,10L130,65a1.5,1.5,0,1,1,1,2.82l-8.32,3A1.52,1.52,0,0,1,122.15,70.89Z"/><path class="cls-3" d="M122.15,70.89a1.34,1.34,0,0,1-.48-.08l-8.07-2.7a1.5,1.5,0,0,1,1-2.84l8.07,2.7a1.5,1.5,0,0,1-.48,2.92Z"/><path class="cls-3" d="M120.84,139a93.78,93.78,0,0,1-17.12-1.58,1.5,1.5,0,0,1,.56-2.95A90.58,90.58,0,0,0,122.22,136c13.51,0,21-1.94,22.1-3a1.5,1.5,0,0,1,3,.25c0,2.09-2.51,3.47-8.14,4.48A99.92,99.92,0,0,1,122.24,139Z"/></g></g></svg>